<?xml version="1.0" encoding="UTF-8" standalone="no"?>
<svg
   height="24"
   viewBox="0 -960 960 960"
   width="24"
   version="1.1"
   id="svg4"
   sodipodi:docname="tibia-alt.svg"
   inkscape:version="1.1.2 (0a00cf5339, 2022-02-04)"
   xmlns:inkscape="http://www.inkscape.org/namespaces/inkscape"
   xmlns:sodipodi="http://sodipodi.sourceforge.net/DTD/sodipodi-0.dtd"
   xmlns="http://www.w3.org/2000/svg"
   xmlns:svg="http://www.w3.org/2000/svg">
  <defs
     id="defs8" />
  <sodipodi:namedview
     id="namedview6"
     pagecolor="#ffffff"
     bordercolor="#666666"
     borderopacity="1.0"
     inkscape:pageshadow="2"
     inkscape:pageopacity="0.0"
     inkscape:pagecheckerboard="0"
     showgrid="false"
     inkscape:zoom="29.458333"
     inkscape:cx="11.983027"
     inkscape:cy="12"
     inkscape:window-width="1920"
     inkscape:window-height="1024"
     inkscape:window-x="0"
     inkscape:window-y="1104"
     inkscape:window-maximized="0"
     inkscape:current-layer="svg4" />
  <path
     d="m 565,-80 q 16,-47 24,-92.5 8,-45.5 10,-86 2,-40.5 0.5,-74.5 -1.5,-34 -4.5,-58 1,0 0,0 22,-5 50.5,-12.5 28.5,-7.5 61,-20.5 32.5,-13 66.5,-31.5 34,-18.5 67,-44.5 l -50,-70 q -39,35 -81.5,55.5 -42.5,20.5 -78.5,32 -36,11.5 -60,15 l -24,3.5 q -18,1 -28.5,15 -10.5,14 -7.5,32 l 4.5,33.5 q 4.5,33.5 5,83.5 0.5,50 -7.5,109 -8,59 -33,111 z m -366,0 h 80 v -423 q 0,-48 25.5,-87 25.5,-39 68.5,-59 l 273,-123 -49,-67 -257,117 q -64,29 -102.5,88 -38.5,59 -38.5,131 z m 220,-121 q -9,0 -17,-4 -8,-4 -13,-10 -6,6 -14,10 -8,4 -16,4 -17,0 -28.5,-11.5 Q 319,-224 319,-241 q 0,-17 11.5,-28.5 Q 342,-281 359,-281 v -159 q -17,0 -28.5,-11.5 Q 319,-463 319,-480 q 0,-17 11.5,-28.5 11.5,-11.5 28.5,-11.5 8,0 16,3.5 8,3.5 14,9.5 5,-6 13,-9.5 8,-3.5 17,-3.5 17,0 28.5,11.5 11.5,11.5 11.5,28.5 0,17 -11.5,28.5 Q 436,-440 419,-440 v 159 q 17,0 28.5,11.5 11.5,11.5 11.5,28.5 0,17 -11.5,28.5 Q 436,-201 419,-201 Z m 60,121 q 25,-52 33,-111 8,-59 7.5,-109 -0.5,-50 -5,-83.5 L 510,-417 q -3,-18 7.5,-32 10.5,-14 28.5,-15 l 24,-3.5 q 24,-3.5 60,-15 36,-11.5 78.5,-32 42.5,-20.5 81.5,-55.5 -39,35 -81.5,55.5 -42.5,20.5 -78.5,32 -36,11.5 -60,15 l -24,3.5 q -18,1 -28.5,15 -10.5,14 -7.5,32 l 4.5,33.5 q 4.5,33.5 5,83.5 0.5,50 -7.5,109 -8,59 -33,111 z"
     id="path2" />
</svg>
